<svg width="18" height="33" viewBox="0 0 18 33" fill="none" xmlns="http://www.w3.org/2000/svg">
<path d="M17.3252 29.7456L17.2586 29.7333L17.1842 29.7187L17.0325 29.6877L16.7249 29.6212C16.519 29.5756 16.3122 29.5269 16.1056 29.4765C15.6926 29.3754 15.2795 29.2661 14.8683 29.15C14.0456 28.9172 13.2306 28.6563 12.4235 28.3672C11.6192 28.0783 10.8226 27.7598 10.0438 27.408C9.26501 27.0561 8.50082 26.6708 7.76449 26.2457C7.02809 25.8237 6.31968 25.3528 5.64379 24.836C4.97306 24.3245 4.35017 23.7507 3.78306 23.1218C3.22013 22.4995 2.73856 21.8051 2.35031 21.0559C1.96553 20.3049 1.70076 19.4955 1.56601 18.6581C1.53169 18.449 1.51081 18.2339 1.49536 18.0184C1.47992 17.8029 1.47156 17.5873 1.46879 17.3709C1.46501 16.9362 1.48593 16.5015 1.53145 16.069C1.6246 15.1983 1.80092 14.3387 2.05786 13.5025C2.31748 12.6582 2.63807 11.8345 3.01696 11.0382C3.39776 10.2371 3.82301 9.45877 4.29062 8.70697C5.22517 7.19798 6.30565 5.77875 7.47519 4.43897C8.0602 3.7694 8.66741 3.12028 9.29684 2.49159C9.61145 2.1775 9.93119 1.86875 10.2561 1.56534C10.5815 1.26307 10.9113 0.964952 11.2518 0.679471C10.9004 0.950845 10.559 1.23546 10.2213 1.52484C9.8836 1.81421 9.55202 2.11115 9.22457 2.413C8.57042 3.01703 7.93588 3.64354 7.32095 4.29253C6.09362 5.59008 4.9481 6.97613 3.93907 8.46954C3.43207 9.21696 2.96739 9.99339 2.54735 10.795C2.12355 11.6016 1.75915 12.4393 1.45719 13.3009C1.15229 14.1704 0.931217 15.0679 0.797131 15.9806C0.731178 16.4403 0.691219 16.9034 0.677453 17.3675C0.669707 17.5998 0.669886 17.8328 0.677993 18.0665C0.685653 18.2998 0.701247 18.532 0.718945 18.7687C0.800952 19.7168 1.03053 20.6448 1.39903 21.5177C1.76952 22.388 2.2489 23.2051 2.8252 23.9487C3.39548 24.6859 4.0312 25.3675 4.72431 25.985C5.41122 26.5972 6.1368 27.1627 6.89638 27.6777C7.65119 28.1936 8.43195 28.6656 9.22936 29.1015C10.0268 29.5374 10.8406 29.9376 11.6668 30.3079C12.493 30.6782 13.3311 31.0184 14.1809 31.3304C14.6057 31.486 15.0339 31.6347 15.4656 31.7767C15.6813 31.8478 15.8985 31.9165 16.1171 31.9828L16.4488 32.0794L16.6167 32.1277L16.7028 32.1514L16.7966 32.1766L17.3252 29.7456Z" fill="#F5F5F7"/>
</svg>
